<?xml version="1.0" encoding="UTF-8" standalone="no"?>
<!DOCTYPE svg PUBLIC "-//W3C//DTD SVG 1.1//EN" "http://www.w3.org/Graphics/SVG/1.1/DTD/svg11.dtd">
<svg width="100%" height="100%" viewBox="0 0 53 83" version="1.1" xmlns="http://www.w3.org/2000/svg" xmlns:xlink="http://www.w3.org/1999/xlink" xml:space="preserve" xmlns:serif="http://www.serif.com/" style="fill-rule:evenodd;clip-rule:evenodd;stroke-linejoin:bevel;">
    <g transform="matrix(0.75,0,0,0.75,0,0)">
        <g id="Layer1" transform="matrix(2.34742,0,0,2.33152,-393.994,-370.99)">
            <g transform="matrix(0.0622327,0,0,0.0622327,168.044,159.122)">
                <rect x="-1.875" y="-0.05" width="476.124" height="759.191" style="fill:white;"/>
            </g>
            <g id="_-g4769" serif:id="#g4769" transform="matrix(0.952454,0,0,0.947292,1.84959,-418.129)">
                <path id="path6574-2" d="M177.304,657.366C177.062,657.286 176.818,657.192 176.761,657.157C176.694,657.116 176.999,656.958 177.633,656.706C178.17,656.493 178.649,656.277 178.699,656.226C178.8,656.123 179.351,653.82 179.304,653.695C179.288,653.652 178.795,653.304 178.208,652.922L177.141,652.228L176.122,652.637C175.561,652.862 175.088,653.033 175.072,653.017C175.056,653.001 175.129,652.806 175.234,652.584C175.781,651.433 177.019,650.667 178.332,650.667C178.982,650.667 179.747,650.895 180.182,651.217C180.804,651.68 180.589,651.72 183.256,650.641C185.14,649.878 185.688,649.626 185.688,649.52C185.688,649.413 185.147,649.164 183.294,648.412C181.978,647.879 180.851,647.442 180.789,647.442C180.727,647.442 180.569,647.532 180.438,647.643C179.146,648.73 177.085,648.589 175.859,647.33C175.486,646.947 175.029,646.158 175.125,646.062C175.149,646.038 175.569,646.179 176.059,646.376C176.549,646.573 177.018,646.734 177.101,646.734C177.262,646.734 179.25,645.492 179.303,645.358C179.335,645.278 178.781,642.825 178.72,642.774C178.702,642.759 178.254,642.576 177.724,642.367C177.194,642.158 176.76,641.961 176.76,641.929C176.76,641.897 176.928,641.806 177.134,641.726C177.702,641.507 179.013,641.525 179.595,641.759C180.222,642.012 180.896,642.592 181.251,643.183C181.51,643.615 181.602,643.896 181.759,644.734C181.785,644.868 182.457,645.166 185.63,646.448C187.742,647.302 189.539,648.004 189.624,648.008C189.75,648.014 196.951,645.146 197.377,644.92C197.461,644.875 197.522,644.696 197.556,644.397C197.698,643.142 198.708,642.008 199.994,641.66C200.79,641.445 201.764,641.518 202.423,641.842C203.689,642.466 204.429,643.75 204.354,645.19C204.28,646.594 203.361,647.746 201.926,648.231C200.926,648.569 199.711,648.35 198.864,647.679C198.699,647.549 198.517,647.442 198.458,647.443C198.399,647.443 197.275,647.88 195.959,648.414C193.683,649.338 193.307,649.54 193.62,649.672C194.452,650.022 198.437,651.611 198.483,651.611C198.518,651.611 198.699,651.494 198.886,651.352C199.44,650.929 200.003,650.724 200.718,650.684C201.805,650.624 202.739,650.994 203.444,651.765C203.807,652.162 204.254,652.931 204.17,653.015C204.151,653.034 203.722,652.88 203.216,652.673C202.71,652.466 202.24,652.292 202.172,652.288C202.104,652.284 201.58,652.58 201.007,652.948C200.2,653.466 199.965,653.655 199.965,653.787C199.964,653.987 200.418,656.008 200.499,656.159C200.529,656.217 201.014,656.453 201.576,656.684L202.599,657.105L202.317,657.225C201.767,657.458 201.296,657.532 200.655,657.488C199.16,657.386 197.857,656.228 197.588,654.762C197.544,654.522 197.485,654.278 197.458,654.22C197.43,654.163 195.659,653.408 193.522,652.544L189.636,650.972L185.783,652.527C183.664,653.382 181.887,654.125 181.834,654.178C181.782,654.23 181.716,654.461 181.689,654.691C181.573,655.673 180.785,656.691 179.763,657.179C179.262,657.419 179.095,657.458 178.466,657.483C177.913,657.505 177.64,657.478 177.304,657.366L177.304,657.366ZM200.948,647.329L201.204,647.058L201.464,647.25C201.608,647.356 201.769,647.442 201.823,647.442C201.974,647.442 202.166,647.119 202.166,646.864C202.166,646.64 202.173,646.636 202.517,646.675C202.792,646.706 202.896,646.683 202.999,646.57C203.12,646.436 203.12,646.402 203.002,646.106L202.874,645.787L203.091,645.695C203.38,645.571 203.582,645.396 203.582,645.268C203.582,645.21 203.476,645.068 203.346,644.952C203.066,644.702 203.061,644.664 203.273,644.367C203.474,644.084 203.414,643.842 203.125,643.777C202.611,643.663 202.617,643.669 202.66,643.348C202.684,643.168 202.661,642.991 202.603,642.912C202.506,642.78 202.485,642.78 201.909,642.925C201.759,642.963 201.714,642.925 201.629,642.689C201.477,642.27 201.187,642.224 200.902,642.573L200.684,642.84L200.445,642.663C200.062,642.38 199.728,642.467 199.728,642.85C199.728,643.209 199.657,643.271 199.305,643.223C198.856,643.162 198.724,643.312 198.851,643.737C198.972,644.141 198.981,644.119 198.648,644.276C198.263,644.457 198.237,644.643 198.55,644.967L198.803,645.228L198.631,645.47C198.367,645.841 198.437,646.048 198.863,646.152L199.217,646.238L199.191,646.598C199.158,647.067 199.324,647.18 199.8,647.012L200.122,646.898L200.243,647.187C200.448,647.678 200.591,647.707 200.948,647.329L200.948,647.329Z" style="fill-rule:nonzero;stroke:black;stroke-width:0.33px;"/>
                <path id="path6576-7" d="M178.772,639.726C177.972,639.45 177.203,638.795 176.838,638.081C176.455,637.329 176.448,637.188 176.447,629.666C176.447,625.202 176.476,622.443 176.528,622.126C176.749,620.765 177.815,619.658 179.183,619.371C179.422,619.32 180.398,619.283 181.475,619.283C182.904,619.283 183.359,619.26 183.386,619.185C183.406,619.131 182.868,617.566 182.191,615.709C181.019,612.492 180.949,612.328 180.739,612.272C180.473,612.201 180.243,612.003 180.095,611.716C179.716,610.984 180.46,610.099 181.266,610.322C181.863,610.486 182.191,611.196 181.921,611.737C181.851,611.877 181.794,612.05 181.794,612.12C181.794,612.243 184.239,619.025 184.346,619.197C184.407,619.296 194.833,619.321 194.973,619.223C195.019,619.191 195.634,617.574 196.34,615.629L197.623,612.094L197.477,611.824C197.058,611.044 197.733,610.082 198.539,610.313C199.086,610.47 199.335,610.778 199.335,611.299C199.335,611.727 199.139,612.028 198.733,612.226L198.373,612.4L197.16,615.738C196.492,617.573 195.964,619.122 195.986,619.179C196.018,619.261 196.413,619.283 197.866,619.283C198.878,619.283 199.894,619.319 200.124,619.362C201.18,619.562 202.107,620.286 202.568,621.271L202.835,621.839L202.858,629.39C202.885,637.843 202.906,637.486 202.326,638.384C201.97,638.934 201.584,639.265 200.909,639.599L200.4,639.852L189.819,639.87C179.34,639.887 179.233,639.886 178.772,639.726L178.772,639.726ZM198.424,635.203C198.532,635.161 198.548,634.938 198.548,633.513C198.548,631.875 198.548,631.871 198.371,631.828C198.274,631.805 194.301,631.795 189.542,631.807L180.89,631.829L180.868,633.439C180.856,634.325 180.864,635.095 180.885,635.15C180.916,635.231 182.636,635.25 189.612,635.25C194.39,635.25 198.355,635.229 198.424,635.203L198.424,635.203ZM185.216,627.158C185.797,626.879 186.127,626.541 186.401,625.941C186.588,625.531 186.607,625.41 186.576,624.84C186.522,623.853 186.073,623.163 185.21,622.738C184.66,622.467 183.646,622.465 183.131,622.734C181.156,623.763 181.294,626.539 183.358,627.276C183.514,627.332 183.89,627.38 184.193,627.381C184.642,627.385 184.831,627.343 185.216,627.158L185.216,627.158ZM196.076,627.253C196.628,627.065 197.296,626.383 197.487,625.811C197.713,625.134 197.675,624.496 197.371,623.879C196.457,622.021 193.813,622.086 192.937,623.989C192.693,624.519 192.703,625.477 192.958,625.966C193.327,626.674 193.726,627.047 194.355,627.271C194.771,627.419 195.613,627.41 196.076,627.253L196.076,627.253Z" style="fill-rule:nonzero;stroke:black;stroke-width:0.33px;"/>
            </g>
        </g>
    </g>
</svg>
